<?xml version="1.0" standalone="no"?>
<!DOCTYPE svg PUBLIC "-//W3C//DTD SVG 20010904//EN"
 "http://www.w3.org/TR/2001/REC-SVG-20010904/DTD/svg10.dtd">
<svg version="1.0" xmlns="http://www.w3.org/2000/svg"
 width="474.000000pt" height="408.000000pt" viewBox="0 0 474.000000 408.000000"
 preserveAspectRatio="xMidYMid meet">

<g transform="translate(0.000000,408.000000) scale(0.100000,-0.100000)"
fill="#000000" stroke="none">
<path d="M1000 1725 l0 -255 75 0 75 0 0 196 0 197 79 -5 c128 -7 141 -30 141
-243 l0 -145 70 0 70 0 0 168 c0 92 -5 185 -11 207 -6 22 -28 56 -48 76 -48
48 -102 59 -296 59 l-155 0 0 -255z"/>
<path d="M1540 1968 c0 -7 35 -121 78 -253 l78 -240 105 -3 104 -3 79 243 c43
134 81 249 83 256 4 9 -14 12 -69 12 l-74 0 -59 -195 c-32 -108 -60 -193 -63
-190 -5 5 -53 168 -102 348 l-11 37 -74 0 c-54 0 -75 -4 -75 -12z"/>
<path d="M2130 1725 l0 -255 70 0 70 0 0 255 0 255 -70 0 -70 0 0 -255z"/>
<path d="M2360 1724 l0 -256 178 4 c124 2 184 7 202 17 83 45 115 117 108 250
-3 68 -9 96 -28 131 -49 87 -115 110 -325 110 l-135 0 0 -256z m299 118 c41
-30 52 -60 48 -129 -5 -93 -52 -133 -157 -133 l-50 0 0 138 c0 76 3 142 8 146
13 15 124 -2 151 -22z"/>
<path d="M2920 1725 l0 -255 70 0 70 0 0 255 0 255 -70 0 -70 0 0 -255z"/>
<path d="M3234 1758 c-48 -123 -93 -238 -101 -256 l-14 -33 73 3 73 3 15 43
15 43 119 -3 119 -3 15 -42 14 -43 74 0 c41 0 74 3 74 7 0 4 -44 119 -97 255
l-98 248 -96 0 -97 0 -88 -222z m220 21 c19 -52 37 -102 41 -111 6 -16 -1 -18
-80 -18 -66 0 -86 3 -82 13 2 6 21 58 42 115 21 57 39 101 41 99 2 -2 19 -46
38 -98z"/>
<path d="M3760 1532 c-45 -36 7 -99 56 -67 29 19 31 38 4 65 -25 25 -32 25
-60 2z m58 -31 c2 -14 0 -21 -7 -17 -5 4 -8 12 -5 19 2 7 -4 13 -16 14 -14 1
-20 -5 -21 -20 0 -12 -3 -16 -6 -9 -9 23 6 44 29 40 15 -2 24 -11 26 -27z
m-23 -21 c3 -5 1 -10 -4 -10 -6 0 -11 5 -11 10 0 6 2 10 4 10 3 0 8 -4 11 -10z"/>
<path d="M3189 1041 c-29 -23 -20 -68 16 -77 34 -9 57 12 53 49 -4 39 -38 53
-69 28z m56 -30 c0 -34 -30 -51 -51 -29 -25 24 -10 60 24 56 21 -2 27 -8 27
-27z"/>
<path d="M3200 1003 c0 -22 2 -25 10 -13 5 8 10 11 10 5 0 -11 20 16 20 28 0
4 -9 7 -20 7 -15 0 -20 -7 -20 -27z"/>
<path d="M1533 1031 c-25 -12 -52 -36 -68 -60 -24 -35 -28 -53 -32 -143 -7
-130 7 -203 47 -247 100 -108 283 -65 325 77 6 20 3 22 -33 22 -34 0 -42 -5
-63 -37 -32 -50 -91 -65 -141 -36 -45 26 -60 81 -56 205 4 114 21 147 82 162
50 13 86 -1 115 -47 21 -32 29 -37 63 -37 36 0 39 2 32 23 -14 45 -35 77 -70
104 -49 36 -139 43 -201 14z"/>
<path d="M1910 849 c0 -189 1 -204 22 -241 55 -97 199 -117 290 -40 53 44 58
71 58 287 l0 195 -40 0 -40 0 0 -196 0 -196 -34 -34 c-38 -38 -77 -44 -124
-20 -48 25 -53 47 -55 251 l-2 190 -37 3 -38 3 0 -202z"/>
<path d="M2412 788 l3 -263 110 0 c130 0 153 5 200 46 45 40 55 79 55 224 0
100 -3 127 -20 159 -37 74 -88 94 -238 95 l-112 1 2 -262z m228 174 c54 -27
61 -50 58 -190 l-3 -124 -30 -24 c-25 -20 -41 -24 -102 -24 l-73 0 0 190 0
190 58 0 c34 0 71 -7 92 -18z"/>
<path d="M2929 793 c-51 -142 -92 -260 -91 -263 1 -3 19 -5 39 -5 36 0 38 2
57 53 l19 52 102 0 102 0 19 -52 c19 -51 21 -53 57 -53 20 0 38 4 38 8 1 4
-40 123 -91 263 l-93 254 -32 0 -32 0 -94 -257z m170 17 c17 -52 31 -98 31
-103 0 -4 -34 -7 -76 -7 -57 0 -75 3 -72 13 3 6 20 56 38 110 18 54 37 94 40
90 4 -5 22 -51 39 -103z"/>
</g>
</svg>
